<svg width="100" height="78" viewBox="0 0 100 78" fill="none" xmlns="http://www.w3.org/2000/svg">
<path d="M44.145 57.05C44.145 44.8 36.06 36.47 24.79 36.47C24.79 27.65 32.14 15.4 42.185 7.06999L24.3 0.699998C10.58 10.745 0.780001 30.59 0.780001 48.72C0.780001 66.115 9.845 77.63 23.32 77.63C35.08 77.63 44.145 69.055 44.145 57.05ZM99.515 57.05C99.515 44.8 91.675 36.47 80.405 36.47C80.405 27.65 87.51 15.4 97.8 7.06999L79.67 0.699998C65.95 10.745 56.395 30.59 56.395 48.72C56.395 66.115 65.215 77.63 78.935 77.63C90.45 77.63 99.515 69.055 99.515 57.05Z" fill="black"/>
</svg>
