<svg width="100" height="78" viewBox="0 0 100 78" fill="none" xmlns="http://www.w3.org/2000/svg">
<path d="M55.855 20.95C55.855 33.2 63.94 41.53 75.21 41.53C75.21 50.35 67.86 62.6 57.815 70.93L75.7 77.3C89.42 67.255 99.22 47.41 99.22 29.28C99.22 11.885 90.155 0.370007 76.68 0.370007C64.92 0.370007 55.855 8.94501 55.855 20.95ZM0.484993 20.95C0.484993 33.2 8.32499 41.53 19.595 41.53C19.595 50.35 12.49 62.6 2.19999 70.93L20.33 77.3C34.05 67.255 43.605 47.41 43.605 29.28C43.605 11.885 34.785 0.370007 21.065 0.370007C9.54999 0.370007 0.484993 8.94501 0.484993 20.95Z" fill="black"/>
</svg>
