<svg width="1797" height="1229" viewBox="0 0 1797 1229" fill="none" xmlns="http://www.w3.org/2000/svg">
<path d="M1230.92 23L1238.78 5.03V23H1241.27V1.85H1237.61L1229.93 19.52L1222.25 1.85H1218.59V23H1221.08V5.06L1228.91 23H1230.92ZM1247.67 23L1249.41 18.02H1259.91L1261.71 23H1264.38L1256.49 1.85H1252.89L1245 23H1247.67ZM1254.72 4.07L1259.25 16.07H1250.16L1254.72 4.07ZM1277.34 14.72L1282.35 23H1285.26L1279.86 14.36C1282.92 13.7 1285.08 11.24 1285.08 8.36C1285.08 4.55 1281.9 1.85 1277.43 1.85H1268.1V23H1270.59V14.72H1277.34ZM1277.25 4.07C1280.37 4.07 1282.59 5.69 1282.59 8.36C1282.59 10.79 1280.37 12.5 1277.25 12.5H1270.59V4.07H1277.25ZM1306.62 15.95C1305.78 19.16 1302.63 21.53 1299.06 21.53C1294.14 21.53 1290.6 17.72 1290.57 12.44C1290.57 7.13 1294.11 3.32 1299.06 3.32C1302.66 3.32 1305.81 5.81 1306.59 9.11L1309.05 8.81C1308.03 4.37 1303.83 1.1 1299.06 1.1C1292.7 1.1 1288.08 5.87 1288.08 12.44C1288.08 19.01 1292.7 23.75 1299.06 23.75C1303.83 23.75 1308 20.63 1309.05 16.4L1306.62 15.95ZM1326.97 11H1316.17V4.07H1328.17V1.85H1313.74V23H1328.47V20.78H1316.17V13.1H1326.97V11ZM1335.57 1.85H1333.08V23H1346.4V20.78H1335.57V1.85ZM1368.53 23C1372.73 23 1375.79 20.51 1375.79 17.09C1375.79 14.69 1374.14 12.62 1371.8 12.08C1373.78 11.57 1375.19 9.71 1375.19 7.55C1375.19 4.25 1372.4 1.85 1368.59 1.85H1359.65V23H1368.53ZM1368.2 13.22C1371.17 13.22 1373.3 14.78 1373.3 16.97C1373.3 19.16 1371.17 20.78 1368.2 20.78H1362.14V13.22H1368.2ZM1368.29 4.07C1370.87 4.07 1372.7 5.54 1372.7 7.55C1372.7 9.59 1370.87 11 1368.29 11H1362.14V4.07H1368.29ZM1390.01 14.72L1395.02 23H1397.93L1392.53 14.36C1395.59 13.7 1397.75 11.24 1397.75 8.36C1397.75 4.55 1394.57 1.85 1390.1 1.85H1380.77V23H1383.26V14.72H1390.01ZM1389.92 4.07C1393.04 4.07 1395.26 5.69 1395.26 8.36C1395.26 10.79 1393.04 12.5 1389.92 12.5H1383.26V4.07H1389.92ZM1415.92 11H1405.12V4.07H1417.12V1.85H1402.69V23H1417.42V20.78H1405.12V13.1H1415.92V11ZM1436.48 14.42C1436.48 18.59 1434.05 21.53 1430.42 21.53C1426.73 21.53 1424.33 18.29 1424.33 14.42V1.85H1421.84V14.42C1421.84 19.88 1425.38 23.75 1430.42 23.75C1435.43 23.75 1438.97 19.88 1438.97 14.42V1.85H1436.48V14.42ZM1457.72 11H1446.92V4.07H1458.92V1.85H1444.49V23H1459.22V20.78H1446.92V13.1H1457.72V11ZM1473.07 14.72L1478.08 23H1480.99L1475.59 14.36C1478.65 13.7 1480.81 11.24 1480.81 8.36C1480.81 4.55 1477.63 1.85 1473.16 1.85H1463.83V23H1466.32V14.72H1473.07ZM1472.98 4.07C1476.1 4.07 1478.32 5.69 1478.32 8.36C1478.32 10.79 1476.1 12.5 1472.98 12.5H1466.32V4.07H1472.98ZM1500.91 1.85H1498.9L1493.29 6.14V9.11L1498.39 5.18V23H1500.91V1.85ZM1519.14 13.85C1520.67 11.87 1521.36 9.83 1521.36 8.15C1521.36 4.22 1518.03 1.13 1513.41 1.13C1508.88 1.13 1505.61 4.16 1505.61 8.36C1505.61 12.44 1508.67 15.38 1512.93 15.38C1513.62 15.38 1514.43 15.29 1515.27 14.93L1509.09 23H1512.12L1519.14 13.85ZM1518.84 8.36C1518.84 11.21 1516.53 13.28 1513.35 13.25C1510.32 13.25 1508.1 11.21 1508.1 8.36C1508.1 5.48 1510.32 3.35 1513.35 3.35C1516.53 3.32 1518.84 5.45 1518.84 8.36ZM1532.48 1.1C1528.73 1.1 1525.49 3.95 1524.89 7.94L1527.29 8.42C1527.68 5.42 1529.87 3.32 1532.51 3.32C1535.27 3.32 1537.25 5.27 1537.25 7.88C1537.25 9.98 1535.9 11.57 1533.92 13.13L1525.07 20.15V23H1539.41V20.78H1527.83L1535.27 14.96C1537.91 12.86 1539.74 10.64 1539.74 7.7C1539.74 3.92 1536.65 1.1 1532.48 1.1ZM1550.81 11.9C1554.38 11.9 1556.57 13.97 1556.57 16.82C1556.57 19.55 1554.41 21.53 1551.44 21.53C1548.59 21.53 1546.31 19.25 1546.07 16.1L1543.85 16.49C1544.18 20.69 1547.42 23.75 1551.56 23.75C1555.88 23.75 1559.03 20.81 1559.03 16.76C1559.03 12.65 1555.88 9.68 1551.05 9.68H1547.99L1548.56 4.07H1557.35V1.85H1546.52L1545.44 11.9H1550.81Z" fill="black"/>
<path d="M875.916 23L883.776 5.03V23H886.266V1.85H882.606L874.926 19.52L867.246 1.85H863.586V23H866.076V5.06L873.906 23H875.916ZM892.665 23L894.405 18.02H904.905L906.705 23H909.375L901.485 1.85H897.885L889.995 23H892.665ZM899.715 4.07L904.245 16.07H895.155L899.715 4.07ZM922.338 14.72L927.348 23H930.258L924.858 14.36C927.918 13.7 930.078 11.24 930.078 8.36C930.078 4.55 926.898 1.85 922.428 1.85H913.098V23H915.588V14.72H922.338ZM922.248 4.07C925.368 4.07 927.588 5.69 927.588 8.36C927.588 10.79 925.368 12.5 922.248 12.5H915.588V4.07H922.248ZM951.624 15.95C950.784 19.16 947.634 21.53 944.064 21.53C939.144 21.53 935.604 17.72 935.574 12.44C935.574 7.13 939.114 3.32 944.064 3.32C947.664 3.32 950.814 5.81 951.594 9.11L954.054 8.81C953.034 4.37 948.834 1.1 944.064 1.1C937.704 1.1 933.084 5.87 933.084 12.44C933.084 19.01 937.704 23.75 944.064 23.75C948.834 23.75 953.004 20.63 954.054 16.4L951.624 15.95ZM971.973 11H961.173V4.07H973.173V1.85H958.743V23H973.473V20.78H961.173V13.1H971.973V11ZM980.569 1.85H978.079V23H991.399V20.78H980.569V1.85ZM1013.53 23C1017.73 23 1020.79 20.51 1020.79 17.09C1020.79 14.69 1019.14 12.62 1016.8 12.08C1018.78 11.57 1020.19 9.71 1020.19 7.55C1020.19 4.25 1017.4 1.85 1013.59 1.85H1004.65V23H1013.53ZM1013.2 13.22C1016.17 13.22 1018.3 14.78 1018.3 16.97C1018.3 19.16 1016.17 20.78 1013.2 20.78H1007.14V13.22H1013.2ZM1013.29 4.07C1015.87 4.07 1017.7 5.54 1017.7 7.55C1017.7 9.59 1015.87 11 1013.29 11H1007.14V4.07H1013.29ZM1035.01 14.72L1040.02 23H1042.93L1037.53 14.36C1040.59 13.7 1042.75 11.24 1042.75 8.36C1042.75 4.55 1039.57 1.85 1035.1 1.85H1025.77V23H1028.26V14.72H1035.01ZM1034.92 4.07C1038.04 4.07 1040.26 5.69 1040.26 8.36C1040.26 10.79 1038.04 12.5 1034.92 12.5H1028.26V4.07H1034.92ZM1060.92 11H1050.12V4.07H1062.12V1.85H1047.69V23H1062.42V20.78H1050.12V13.1H1060.92V11ZM1081.48 14.42C1081.48 18.59 1079.05 21.53 1075.42 21.53C1071.73 21.53 1069.33 18.29 1069.33 14.42V1.85H1066.84V14.42C1066.84 19.88 1070.38 23.75 1075.42 23.75C1080.43 23.75 1083.97 19.88 1083.97 14.42V1.85H1081.48V14.42ZM1102.72 11H1091.92V4.07H1103.92V1.85H1089.49V23H1104.22V20.78H1091.92V13.1H1102.72V11ZM1118.07 14.72L1123.08 23H1125.99L1120.59 14.36C1123.65 13.7 1125.81 11.24 1125.81 8.36C1125.81 4.55 1122.63 1.85 1118.16 1.85H1108.83V23H1111.32V14.72H1118.07ZM1117.98 4.07C1121.1 4.07 1123.32 5.69 1123.32 8.36C1123.32 10.79 1121.1 12.5 1117.98 12.5H1111.32V4.07H1117.98ZM1145.91 1.85H1143.9L1138.29 6.14V9.11L1143.39 5.18V23H1145.91V1.85ZM1164.14 13.85C1165.67 11.87 1166.36 9.83 1166.36 8.15C1166.36 4.22 1163.03 1.13 1158.41 1.13C1153.88 1.13 1150.61 4.16 1150.61 8.36C1150.61 12.44 1153.67 15.38 1157.93 15.38C1158.62 15.38 1159.43 15.29 1160.27 14.93L1154.09 23H1157.12L1164.14 13.85ZM1163.84 8.36C1163.84 11.21 1161.53 13.28 1158.35 13.25C1155.32 13.25 1153.1 11.21 1153.1 8.36C1153.1 5.48 1155.32 3.35 1158.35 3.35C1161.53 3.32 1163.84 5.45 1163.84 8.36ZM1177.48 1.1C1173.73 1.1 1170.49 3.95 1169.89 7.94L1172.29 8.42C1172.68 5.42 1174.87 3.32 1177.51 3.32C1180.27 3.32 1182.25 5.27 1182.25 7.88C1182.25 9.98 1180.9 11.57 1178.92 13.13L1170.07 20.15V23H1184.41V20.78H1172.83L1180.27 14.96C1182.91 12.86 1184.74 10.64 1184.74 7.7C1184.74 3.92 1181.65 1.1 1177.48 1.1ZM1195.81 11.9C1199.38 11.9 1201.57 13.97 1201.57 16.82C1201.57 19.55 1199.41 21.53 1196.44 21.53C1193.59 21.53 1191.31 19.25 1191.07 16.1L1188.85 16.49C1189.18 20.69 1192.42 23.75 1196.56 23.75C1200.88 23.75 1204.03 20.81 1204.03 16.76C1204.03 12.65 1200.88 9.68 1196.05 9.68H1192.99L1193.56 4.07H1202.35V1.85H1191.52L1190.44 11.9H1195.81Z" fill="black"/>
<path d="M520.916 23L528.776 5.03V23H531.266V1.85H527.606L519.926 19.52L512.246 1.85H508.586V23H511.076V5.06L518.906 23H520.916ZM537.665 23L539.405 18.02H549.905L551.705 23H554.375L546.485 1.85H542.885L534.995 23H537.665ZM544.715 4.07L549.245 16.07H540.155L544.715 4.07ZM567.338 14.72L572.348 23H575.258L569.858 14.36C572.918 13.7 575.078 11.24 575.078 8.36C575.078 4.55 571.898 1.85 567.428 1.85H558.098V23H560.588V14.72H567.338ZM567.248 4.07C570.368 4.07 572.588 5.69 572.588 8.36C572.588 10.79 570.368 12.5 567.248 12.5H560.588V4.07H567.248ZM596.624 15.95C595.784 19.16 592.634 21.53 589.064 21.53C584.144 21.53 580.604 17.72 580.574 12.44C580.574 7.13 584.114 3.32 589.064 3.32C592.664 3.32 595.814 5.81 596.594 9.11L599.054 8.81C598.034 4.37 593.834 1.1 589.064 1.1C582.704 1.1 578.084 5.87 578.084 12.44C578.084 19.01 582.704 23.75 589.064 23.75C593.834 23.75 598.004 20.63 599.054 16.4L596.624 15.95ZM616.973 11H606.173V4.07H618.173V1.85H603.743V23H618.473V20.78H606.173V13.1H616.973V11ZM625.569 1.85H623.079V23H636.399V20.78H625.569V1.85ZM658.531 23C662.731 23 665.791 20.51 665.791 17.09C665.791 14.69 664.141 12.62 661.801 12.08C663.781 11.57 665.191 9.71 665.191 7.55C665.191 4.25 662.401 1.85 658.591 1.85H649.651V23H658.531ZM658.201 13.22C661.171 13.22 663.301 14.78 663.301 16.97C663.301 19.16 661.171 20.78 658.201 20.78H652.141V13.22H658.201ZM658.291 4.07C660.871 4.07 662.701 5.54 662.701 7.55C662.701 9.59 660.871 11 658.291 11H652.141V4.07H658.291ZM680.014 14.72L685.024 23H687.934L682.534 14.36C685.594 13.7 687.754 11.24 687.754 8.36C687.754 4.55 684.574 1.85 680.104 1.85H670.774V23H673.264V14.72H680.014ZM679.924 4.07C683.044 4.07 685.264 5.69 685.264 8.36C685.264 10.79 683.044 12.5 679.924 12.5H673.264V4.07H679.924ZM705.918 11H695.118V4.07H707.118V1.85H692.688V23H707.418V20.78H695.118V13.1H705.918V11ZM726.484 14.42C726.484 18.59 724.054 21.53 720.424 21.53C716.734 21.53 714.334 18.29 714.334 14.42V1.85H711.844V14.42C711.844 19.88 715.384 23.75 720.424 23.75C725.434 23.75 728.974 19.88 728.974 14.42V1.85H726.484V14.42ZM747.725 11H736.925V4.07H748.925V1.85H734.495V23H749.225V20.78H736.925V13.1H747.725V11ZM763.07 14.72L768.08 23H770.99L765.59 14.36C768.65 13.7 770.81 11.24 770.81 8.36C770.81 4.55 767.63 1.85 763.16 1.85H753.83V23H756.32V14.72H763.07ZM762.98 4.07C766.1 4.07 768.32 5.69 768.32 8.36C768.32 10.79 766.1 12.5 762.98 12.5H756.32V4.07H762.98ZM790.913 1.85H788.903L783.293 6.14V9.11L788.393 5.18V23H790.913V1.85ZM809.136 13.85C810.666 11.87 811.356 9.83 811.356 8.15C811.356 4.22 808.026 1.13 803.406 1.13C798.876 1.13 795.606 4.16 795.606 8.36C795.606 12.44 798.666 15.38 802.926 15.38C803.616 15.38 804.426 15.29 805.266 14.93L799.086 23H802.116L809.136 13.85ZM808.836 8.36C808.836 11.21 806.526 13.28 803.346 13.25C800.316 13.25 798.096 11.21 798.096 8.36C798.096 5.48 800.316 3.35 803.346 3.35C806.526 3.32 808.836 5.45 808.836 8.36ZM822.485 1.1C818.735 1.1 815.495 3.95 814.895 7.94L817.295 8.42C817.685 5.42 819.875 3.32 822.515 3.32C825.275 3.32 827.255 5.27 827.255 7.88C827.255 9.98 825.905 11.57 823.925 13.13L815.075 20.15V23H829.415V20.78H817.835L825.275 14.96C827.915 12.86 829.745 10.64 829.745 7.7C829.745 3.92 826.655 1.1 822.485 1.1ZM840.809 11.9C844.379 11.9 846.569 13.97 846.569 16.82C846.569 19.55 844.409 21.53 841.439 21.53C838.589 21.53 836.309 19.25 836.069 16.1L833.849 16.49C834.179 20.69 837.419 23.75 841.559 23.75C845.879 23.75 849.029 20.81 849.029 16.76C849.029 12.65 845.879 9.68 841.049 9.68H837.989L838.559 4.07H847.349V1.85H836.519L835.439 11.9H840.809Z" fill="black"/>
<path d="M165.916 23L173.776 5.03V23H176.266V1.85H172.606L164.926 19.52L157.246 1.85H153.586V23H156.076V5.06L163.906 23H165.916ZM182.665 23L184.405 18.02H194.905L196.705 23H199.375L191.485 1.85H187.885L179.995 23H182.665ZM189.715 4.07L194.245 16.07H185.155L189.715 4.07ZM212.338 14.72L217.348 23H220.258L214.858 14.36C217.918 13.7 220.078 11.24 220.078 8.36C220.078 4.55 216.898 1.85 212.428 1.85H203.098V23H205.588V14.72H212.338ZM212.248 4.07C215.368 4.07 217.588 5.69 217.588 8.36C217.588 10.79 215.368 12.5 212.248 12.5H205.588V4.07H212.248ZM241.624 15.95C240.784 19.16 237.634 21.53 234.064 21.53C229.144 21.53 225.604 17.72 225.574 12.44C225.574 7.13 229.114 3.32 234.064 3.32C237.664 3.32 240.814 5.81 241.594 9.11L244.054 8.81C243.034 4.37 238.834 1.1 234.064 1.1C227.704 1.1 223.084 5.87 223.084 12.44C223.084 19.01 227.704 23.75 234.064 23.75C238.834 23.75 243.004 20.63 244.054 16.4L241.624 15.95ZM261.973 11H251.173V4.07H263.173V1.85H248.743V23H263.473V20.78H251.173V13.1H261.973V11ZM270.569 1.85H268.079V23H281.399V20.78H270.569V1.85ZM303.531 23C307.731 23 310.791 20.51 310.791 17.09C310.791 14.69 309.141 12.62 306.801 12.08C308.781 11.57 310.191 9.71 310.191 7.55C310.191 4.25 307.401 1.85 303.591 1.85H294.651V23H303.531ZM303.201 13.22C306.171 13.22 308.301 14.78 308.301 16.97C308.301 19.16 306.171 20.78 303.201 20.78H297.141V13.22H303.201ZM303.291 4.07C305.871 4.07 307.701 5.54 307.701 7.55C307.701 9.59 305.871 11 303.291 11H297.141V4.07H303.291ZM325.014 14.72L330.024 23H332.934L327.534 14.36C330.594 13.7 332.754 11.24 332.754 8.36C332.754 4.55 329.574 1.85 325.104 1.85H315.774V23H318.264V14.72H325.014ZM324.924 4.07C328.044 4.07 330.264 5.69 330.264 8.36C330.264 10.79 328.044 12.5 324.924 12.5H318.264V4.07H324.924ZM350.918 11H340.118V4.07H352.118V1.85H337.688V23H352.418V20.78H340.118V13.1H350.918V11ZM371.484 14.42C371.484 18.59 369.054 21.53 365.424 21.53C361.734 21.53 359.334 18.29 359.334 14.42V1.85H356.844V14.42C356.844 19.88 360.384 23.75 365.424 23.75C370.434 23.75 373.974 19.88 373.974 14.42V1.85H371.484V14.42ZM392.725 11H381.925V4.07H393.925V1.85H379.495V23H394.225V20.78H381.925V13.1H392.725V11ZM408.07 14.72L413.08 23H415.99L410.59 14.36C413.65 13.7 415.81 11.24 415.81 8.36C415.81 4.55 412.63 1.85 408.16 1.85H398.83V23H401.32V14.72H408.07ZM407.98 4.07C411.1 4.07 413.32 5.69 413.32 8.36C413.32 10.79 411.1 12.5 407.98 12.5H401.32V4.07H407.98ZM435.913 1.85H433.903L428.293 6.14V9.11L433.393 5.18V23H435.913V1.85ZM454.136 13.85C455.666 11.87 456.356 9.83 456.356 8.15C456.356 4.22 453.026 1.13 448.406 1.13C443.876 1.13 440.606 4.16 440.606 8.36C440.606 12.44 443.666 15.38 447.926 15.38C448.616 15.38 449.426 15.29 450.266 14.93L444.086 23H447.116L454.136 13.85ZM453.836 8.36C453.836 11.21 451.526 13.28 448.346 13.25C445.316 13.25 443.096 11.21 443.096 8.36C443.096 5.48 445.316 3.35 448.346 3.35C451.526 3.32 453.836 5.45 453.836 8.36ZM467.485 1.1C463.735 1.1 460.495 3.95 459.895 7.94L462.295 8.42C462.685 5.42 464.875 3.32 467.515 3.32C470.275 3.32 472.255 5.27 472.255 7.88C472.255 9.98 470.905 11.57 468.925 13.13L460.075 20.15V23H474.415V20.78H462.835L470.275 14.96C472.915 12.86 474.745 10.64 474.745 7.7C474.745 3.92 471.655 1.1 467.485 1.1ZM485.809 11.9C489.379 11.9 491.569 13.97 491.569 16.82C491.569 19.55 489.409 21.53 486.439 21.53C483.589 21.53 481.309 19.25 481.069 16.1L478.849 16.49C479.179 20.69 482.419 23.75 486.559 23.75C490.879 23.75 494.029 20.81 494.029 16.76C494.029 12.65 490.879 9.68 486.049 9.68H482.989L483.559 4.07H492.349V1.85H481.519L480.439 11.9H485.809Z" fill="black"/>
<path d="M1774 174.916L1791.97 182.776H1774V185.266H1795.15V181.606L1777.48 173.926L1795.15 166.246V162.586H1774V165.076H1791.94L1774 172.906V174.916ZM1774 191.665L1778.98 193.405V203.905L1774 205.705V208.375L1795.15 200.485V196.885L1774 188.995V191.665ZM1792.93 198.715L1780.93 203.245V194.155L1792.93 198.715ZM1782.28 221.338L1774 226.348V229.258L1782.64 223.858C1783.3 226.918 1785.76 229.078 1788.64 229.078C1792.45 229.078 1795.15 225.898 1795.15 221.428V212.098H1774V214.588H1782.28V221.338ZM1792.93 221.248C1792.93 224.368 1791.31 226.588 1788.64 226.588C1786.21 226.588 1784.5 224.368 1784.5 221.248V214.588H1792.93V221.248ZM1781.05 250.624C1777.84 249.784 1775.47 246.634 1775.47 243.064C1775.47 238.144 1779.28 234.604 1784.56 234.574C1789.87 234.574 1793.68 238.114 1793.68 243.064C1793.68 246.664 1791.19 249.814 1787.89 250.594L1788.19 253.054C1792.63 252.034 1795.9 247.834 1795.9 243.064C1795.9 236.704 1791.13 232.084 1784.56 232.084C1777.99 232.084 1773.25 236.704 1773.25 243.064C1773.25 247.834 1776.37 252.004 1780.6 253.054L1781.05 250.624ZM1786 270.973V260.173H1792.93V272.173H1795.15V257.743H1774V272.473H1776.22V260.173H1783.9V270.973H1786ZM1795.15 279.569V277.079H1774V290.399H1776.22V279.569H1795.15ZM1774 312.531C1774 316.731 1776.49 319.791 1779.91 319.791C1782.31 319.791 1784.38 318.141 1784.92 315.801C1785.43 317.781 1787.29 319.191 1789.45 319.191C1792.75 319.191 1795.15 316.401 1795.15 312.591V303.651H1774V312.531ZM1783.78 312.201C1783.78 315.171 1782.22 317.301 1780.03 317.301C1777.84 317.301 1776.22 315.171 1776.22 312.201V306.141H1783.78V312.201ZM1792.93 312.291C1792.93 314.871 1791.46 316.701 1789.45 316.701C1787.41 316.701 1786 314.871 1786 312.291V306.141H1792.93V312.291ZM1782.28 334.014L1774 339.024V341.934L1782.64 336.534C1783.3 339.594 1785.76 341.754 1788.64 341.754C1792.45 341.754 1795.15 338.574 1795.15 334.104V324.774H1774V327.264H1782.28V334.014ZM1792.93 333.924C1792.93 337.044 1791.31 339.264 1788.64 339.264C1786.21 339.264 1784.5 337.044 1784.5 333.924V327.264H1792.93V333.924ZM1786 359.918V349.118H1792.93V361.118H1795.15V346.688H1774V361.418H1776.22V349.118H1783.9V359.918H1786ZM1782.58 380.484C1778.41 380.484 1775.47 378.054 1775.47 374.424C1775.47 370.734 1778.71 368.334 1782.58 368.334H1795.15V365.844H1782.58C1777.12 365.844 1773.25 369.384 1773.25 374.424C1773.25 379.434 1777.12 382.974 1782.58 382.974H1795.15V380.484H1782.58ZM1786 401.725V390.925H1792.93V402.925H1795.15V388.495H1774V403.225H1776.22V390.925H1783.9V401.725H1786ZM1782.28 417.07L1774 422.08V424.99L1782.64 419.59C1783.3 422.65 1785.76 424.81 1788.64 424.81C1792.45 424.81 1795.15 421.63 1795.15 417.16V407.83H1774V410.32H1782.28V417.07ZM1792.93 416.98C1792.93 420.1 1791.31 422.32 1788.64 422.32C1786.21 422.32 1784.5 420.1 1784.5 416.98V410.32H1792.93V416.98ZM1795.15 444.913V442.903L1790.86 437.293H1787.89L1791.82 442.393H1774V444.913H1795.15ZM1783.15 463.136C1785.13 464.666 1787.17 465.356 1788.85 465.356C1792.78 465.356 1795.87 462.026 1795.87 457.406C1795.87 452.876 1792.84 449.606 1788.64 449.606C1784.56 449.606 1781.62 452.666 1781.62 456.926C1781.62 457.616 1781.71 458.426 1782.07 459.266L1774 453.086V456.116L1783.15 463.136ZM1788.64 462.836C1785.79 462.836 1783.72 460.526 1783.75 457.346C1783.75 454.316 1785.79 452.096 1788.64 452.096C1791.52 452.096 1793.65 454.316 1793.65 457.346C1793.68 460.526 1791.55 462.836 1788.64 462.836ZM1795.9 476.485C1795.9 472.735 1793.05 469.495 1789.06 468.895L1788.58 471.295C1791.58 471.685 1793.68 473.875 1793.68 476.515C1793.68 479.275 1791.73 481.255 1789.12 481.255C1787.02 481.255 1785.43 479.905 1783.87 477.925L1776.85 469.075H1774V483.415H1776.22V471.835L1782.04 479.275C1784.14 481.915 1786.36 483.745 1789.3 483.745C1793.08 483.745 1795.9 480.655 1795.9 476.485ZM1785.1 494.809C1785.1 498.379 1783.03 500.569 1780.18 500.569C1777.45 500.569 1775.47 498.409 1775.47 495.439C1775.47 492.589 1777.75 490.309 1780.9 490.069L1780.51 487.849C1776.31 488.179 1773.25 491.419 1773.25 495.559C1773.25 499.879 1776.19 503.029 1780.24 503.029C1784.35 503.029 1787.32 499.879 1787.32 495.049V491.989L1792.93 492.559V501.349H1795.15V490.519L1785.1 489.439V494.809Z" fill="black"/>
<path d="M1774 529.916L1791.97 537.776H1774V540.266H1795.15V536.606L1777.48 528.926L1795.15 521.246V517.586H1774V520.076H1791.94L1774 527.906V529.916ZM1774 546.665L1778.98 548.405V558.905L1774 560.705V563.375L1795.15 555.485V551.885L1774 543.995V546.665ZM1792.93 553.715L1780.93 558.245V549.155L1792.93 553.715ZM1782.28 576.338L1774 581.348V584.258L1782.64 578.858C1783.3 581.918 1785.76 584.078 1788.64 584.078C1792.45 584.078 1795.15 580.898 1795.15 576.428V567.098H1774V569.588H1782.28V576.338ZM1792.93 576.248C1792.93 579.368 1791.31 581.588 1788.64 581.588C1786.21 581.588 1784.5 579.368 1784.5 576.248V569.588H1792.93V576.248ZM1781.05 605.624C1777.84 604.784 1775.47 601.634 1775.47 598.064C1775.47 593.144 1779.28 589.604 1784.56 589.574C1789.87 589.574 1793.68 593.114 1793.68 598.064C1793.68 601.664 1791.19 604.814 1787.89 605.594L1788.19 608.054C1792.63 607.034 1795.9 602.834 1795.9 598.064C1795.9 591.704 1791.13 587.084 1784.56 587.084C1777.99 587.084 1773.25 591.704 1773.25 598.064C1773.25 602.834 1776.37 607.004 1780.6 608.054L1781.05 605.624ZM1786 625.973V615.173H1792.93V627.173H1795.15V612.743H1774V627.473H1776.22V615.173H1783.9V625.973H1786ZM1795.15 634.569V632.079H1774V645.399H1776.22V634.569H1795.15ZM1774 667.531C1774 671.731 1776.49 674.791 1779.91 674.791C1782.31 674.791 1784.38 673.141 1784.92 670.801C1785.43 672.781 1787.29 674.191 1789.45 674.191C1792.75 674.191 1795.15 671.401 1795.15 667.591V658.651H1774V667.531ZM1783.78 667.201C1783.78 670.171 1782.22 672.301 1780.03 672.301C1777.84 672.301 1776.22 670.171 1776.22 667.201V661.141H1783.78V667.201ZM1792.93 667.291C1792.93 669.871 1791.46 671.701 1789.45 671.701C1787.41 671.701 1786 669.871 1786 667.291V661.141H1792.93V667.291ZM1782.28 689.014L1774 694.024V696.934L1782.64 691.534C1783.3 694.594 1785.76 696.754 1788.64 696.754C1792.45 696.754 1795.15 693.574 1795.15 689.104V679.774H1774V682.264H1782.28V689.014ZM1792.93 688.924C1792.93 692.044 1791.31 694.264 1788.64 694.264C1786.21 694.264 1784.5 692.044 1784.5 688.924V682.264H1792.93V688.924ZM1786 714.918V704.118H1792.93V716.118H1795.15V701.688H1774V716.418H1776.22V704.118H1783.9V714.918H1786ZM1782.58 735.484C1778.41 735.484 1775.47 733.054 1775.47 729.424C1775.47 725.734 1778.71 723.334 1782.58 723.334H1795.15V720.844H1782.58C1777.12 720.844 1773.25 724.384 1773.25 729.424C1773.25 734.434 1777.12 737.974 1782.58 737.974H1795.15V735.484H1782.58ZM1786 756.725V745.925H1792.93V757.925H1795.15V743.495H1774V758.225H1776.22V745.925H1783.9V756.725H1786ZM1782.28 772.07L1774 777.08V779.99L1782.64 774.59C1783.3 777.65 1785.76 779.81 1788.64 779.81C1792.45 779.81 1795.15 776.63 1795.15 772.16V762.83H1774V765.32H1782.28V772.07ZM1792.93 771.98C1792.93 775.1 1791.31 777.32 1788.64 777.32C1786.21 777.32 1784.5 775.1 1784.5 771.98V765.32H1792.93V771.98ZM1795.15 799.913V797.903L1790.86 792.293H1787.89L1791.82 797.393H1774V799.913H1795.15ZM1783.15 818.136C1785.13 819.666 1787.17 820.356 1788.85 820.356C1792.78 820.356 1795.87 817.026 1795.87 812.406C1795.87 807.876 1792.84 804.606 1788.64 804.606C1784.56 804.606 1781.62 807.666 1781.62 811.926C1781.62 812.616 1781.71 813.426 1782.07 814.266L1774 808.086V811.116L1783.15 818.136ZM1788.64 817.836C1785.79 817.836 1783.72 815.526 1783.75 812.346C1783.75 809.316 1785.79 807.096 1788.64 807.096C1791.52 807.096 1793.65 809.316 1793.65 812.346C1793.68 815.526 1791.55 817.836 1788.64 817.836ZM1795.9 831.485C1795.9 827.735 1793.05 824.495 1789.06 823.895L1788.58 826.295C1791.58 826.685 1793.68 828.875 1793.68 831.515C1793.68 834.275 1791.73 836.255 1789.12 836.255C1787.02 836.255 1785.43 834.905 1783.87 832.925L1776.85 824.075H1774V838.415H1776.22V826.835L1782.04 834.275C1784.14 836.915 1786.36 838.745 1789.3 838.745C1793.08 838.745 1795.9 835.655 1795.9 831.485ZM1785.1 849.809C1785.1 853.379 1783.03 855.569 1780.18 855.569C1777.45 855.569 1775.47 853.409 1775.47 850.439C1775.47 847.589 1777.75 845.309 1780.9 845.069L1780.51 842.849C1776.31 843.179 1773.25 846.419 1773.25 850.559C1773.25 854.879 1776.19 858.029 1780.24 858.029C1784.35 858.029 1787.32 854.879 1787.32 850.049V846.989L1792.93 847.559V856.349H1795.15V845.519L1785.1 844.439V849.809Z" fill="black"/>
<path d="M1774 898.916L1791.97 906.776H1774V909.266H1795.15V905.606L1777.48 897.926L1795.15 890.246V886.586H1774V889.076H1791.94L1774 896.906V898.916ZM1774 915.665L1778.98 917.405V927.905L1774 929.705V932.375L1795.15 924.485V920.885L1774 912.995V915.665ZM1792.93 922.715L1780.93 927.245V918.155L1792.93 922.715ZM1782.28 945.338L1774 950.348V953.258L1782.64 947.858C1783.3 950.918 1785.76 953.078 1788.64 953.078C1792.45 953.078 1795.15 949.898 1795.15 945.428V936.098H1774V938.588H1782.28V945.338ZM1792.93 945.248C1792.93 948.368 1791.31 950.588 1788.64 950.588C1786.21 950.588 1784.5 948.368 1784.5 945.248V938.588H1792.93V945.248ZM1781.05 974.624C1777.84 973.784 1775.47 970.634 1775.47 967.064C1775.47 962.144 1779.28 958.604 1784.56 958.574C1789.87 958.574 1793.68 962.114 1793.68 967.064C1793.68 970.664 1791.19 973.814 1787.89 974.594L1788.19 977.054C1792.63 976.034 1795.9 971.834 1795.9 967.064C1795.9 960.704 1791.13 956.084 1784.56 956.084C1777.99 956.084 1773.25 960.704 1773.25 967.064C1773.25 971.834 1776.37 976.004 1780.6 977.054L1781.05 974.624ZM1786 994.973V984.173H1792.93V996.173H1795.15V981.743H1774V996.473H1776.22V984.173H1783.9V994.973H1786ZM1795.15 1003.57V1001.08H1774V1014.4H1776.22V1003.57H1795.15ZM1774 1036.53C1774 1040.73 1776.49 1043.79 1779.91 1043.79C1782.31 1043.79 1784.38 1042.14 1784.92 1039.8C1785.43 1041.78 1787.29 1043.19 1789.45 1043.19C1792.75 1043.19 1795.15 1040.4 1795.15 1036.59V1027.65H1774V1036.53ZM1783.78 1036.2C1783.78 1039.17 1782.22 1041.3 1780.03 1041.3C1777.84 1041.3 1776.22 1039.17 1776.22 1036.2V1030.14H1783.78V1036.2ZM1792.93 1036.29C1792.93 1038.87 1791.46 1040.7 1789.45 1040.7C1787.41 1040.7 1786 1038.87 1786 1036.29V1030.14H1792.93V1036.29ZM1782.28 1058.01L1774 1063.02V1065.93L1782.64 1060.53C1783.3 1063.59 1785.76 1065.75 1788.64 1065.75C1792.45 1065.75 1795.15 1062.57 1795.15 1058.1V1048.77H1774V1051.26H1782.28V1058.01ZM1792.93 1057.92C1792.93 1061.04 1791.31 1063.26 1788.64 1063.26C1786.21 1063.26 1784.5 1061.04 1784.5 1057.92V1051.26H1792.93V1057.92ZM1786 1083.92V1073.12H1792.93V1085.12H1795.15V1070.69H1774V1085.42H1776.22V1073.12H1783.9V1083.92H1786ZM1782.58 1104.48C1778.41 1104.48 1775.47 1102.05 1775.47 1098.42C1775.47 1094.73 1778.71 1092.33 1782.58 1092.33H1795.15V1089.84H1782.58C1777.12 1089.84 1773.25 1093.38 1773.25 1098.42C1773.25 1103.43 1777.12 1106.97 1782.58 1106.97H1795.15V1104.48H1782.58ZM1786 1125.72V1114.92H1792.93V1126.92H1795.15V1112.49H1774V1127.22H1776.22V1114.92H1783.9V1125.72H1786ZM1782.28 1141.07L1774 1146.08V1148.99L1782.64 1143.59C1783.3 1146.65 1785.76 1148.81 1788.64 1148.81C1792.45 1148.81 1795.15 1145.63 1795.15 1141.16V1131.83H1774V1134.32H1782.28V1141.07ZM1792.93 1140.98C1792.93 1144.1 1791.31 1146.32 1788.64 1146.32C1786.21 1146.32 1784.5 1144.1 1784.5 1140.98V1134.32H1792.93V1140.98ZM1795.15 1168.91V1166.9L1790.86 1161.29H1787.89L1791.82 1166.39H1774V1168.91H1795.15ZM1783.15 1187.14C1785.13 1188.67 1787.17 1189.36 1788.85 1189.36C1792.78 1189.36 1795.87 1186.03 1795.87 1181.41C1795.87 1176.88 1792.84 1173.61 1788.64 1173.61C1784.56 1173.61 1781.62 1176.67 1781.62 1180.93C1781.62 1181.62 1781.71 1182.43 1782.07 1183.27L1774 1177.09V1180.12L1783.15 1187.14ZM1788.64 1186.84C1785.79 1186.84 1783.72 1184.53 1783.75 1181.35C1783.75 1178.32 1785.79 1176.1 1788.64 1176.1C1791.52 1176.1 1793.65 1178.32 1793.65 1181.35C1793.68 1184.53 1791.55 1186.84 1788.64 1186.84ZM1795.9 1200.48C1795.9 1196.73 1793.05 1193.49 1789.06 1192.89L1788.58 1195.29C1791.58 1195.68 1793.68 1197.87 1793.68 1200.51C1793.68 1203.27 1791.73 1205.25 1789.12 1205.25C1787.02 1205.25 1785.43 1203.9 1783.87 1201.92L1776.85 1193.07H1774V1207.41H1776.22V1195.83L1782.04 1203.27C1784.14 1205.91 1786.36 1207.74 1789.3 1207.74C1793.08 1207.74 1795.9 1204.65 1795.9 1200.48ZM1785.1 1218.81C1785.1 1222.38 1783.03 1224.57 1780.18 1224.57C1777.45 1224.57 1775.47 1222.41 1775.47 1219.44C1775.47 1216.59 1777.75 1214.31 1780.9 1214.07L1780.51 1211.85C1776.31 1212.18 1773.25 1215.42 1773.25 1219.56C1773.25 1223.88 1776.19 1227.03 1780.24 1227.03C1784.35 1227.03 1787.32 1223.88 1787.32 1219.05V1215.99L1792.93 1216.56V1225.35H1795.15V1214.52L1785.1 1213.44V1218.81Z" fill="black"/>
<path d="M-190.084 23L-182.224 5.03V23H-179.734V1.85H-183.394L-191.074 19.52L-198.754 1.85H-202.414V23H-199.924V5.06L-192.094 23H-190.084ZM-173.335 23L-171.595 18.02H-161.095L-159.295 23H-156.625L-164.515 1.85H-168.115L-176.005 23H-173.335ZM-166.285 4.07L-161.755 16.07H-170.845L-166.285 4.07ZM-143.662 14.72L-138.652 23H-135.742L-141.142 14.36C-138.082 13.7 -135.922 11.24 -135.922 8.36C-135.922 4.55 -139.102 1.85 -143.572 1.85H-152.902V23H-150.412V14.72H-143.662ZM-143.752 4.07C-140.632 4.07 -138.412 5.69 -138.412 8.36C-138.412 10.79 -140.632 12.5 -143.752 12.5H-150.412V4.07H-143.752ZM-114.376 15.95C-115.216 19.16 -118.366 21.53 -121.936 21.53C-126.856 21.53 -130.396 17.72 -130.426 12.44C-130.426 7.13 -126.886 3.32 -121.936 3.32C-118.336 3.32 -115.186 5.81 -114.406 9.11L-111.946 8.81C-112.966 4.37 -117.166 1.1 -121.936 1.1C-128.296 1.1 -132.916 5.87 -132.916 12.44C-132.916 19.01 -128.296 23.75 -121.936 23.75C-117.166 23.75 -112.996 20.63 -111.946 16.4L-114.376 15.95ZM-94.0274 11H-104.827V4.07H-92.8274V1.85H-107.257V23H-92.5274V20.78H-104.827V13.1H-94.0274V11ZM-85.4315 1.85H-87.9215V23H-74.6015V20.78H-85.4315V1.85ZM-52.4692 23C-48.2692 23 -45.2092 20.51 -45.2092 17.09C-45.2092 14.69 -46.8592 12.62 -49.1992 12.08C-47.2192 11.57 -45.8092 9.71 -45.8092 7.55C-45.8092 4.25 -48.5992 1.85 -52.4092 1.85H-61.3492V23H-52.4692ZM-52.7992 13.22C-49.8292 13.22 -47.6992 14.78 -47.6992 16.97C-47.6992 19.16 -49.8292 20.78 -52.7992 20.78H-58.8592V13.22H-52.7992ZM-52.7092 4.07C-50.1292 4.07 -48.2992 5.54 -48.2992 7.55C-48.2992 9.59 -50.1292 11 -52.7092 11H-58.8592V4.07H-52.7092ZM-30.9862 14.72L-25.9762 23H-23.0662L-28.4662 14.36C-25.4062 13.7 -23.2462 11.24 -23.2462 8.36C-23.2462 4.55 -26.4262 1.85 -30.8962 1.85H-40.2262V23H-37.7362V14.72H-30.9862ZM-31.0762 4.07C-27.9562 4.07 -25.7362 5.69 -25.7362 8.36C-25.7362 10.79 -27.9562 12.5 -31.0762 12.5H-37.7362V4.07H-31.0762ZM-5.08211 11H-15.8821V4.07H-3.88211V1.85H-18.3121V23H-3.58211V20.78H-15.8821V13.1H-5.08211V11ZM15.4838 14.42C15.4838 18.59 13.0538 21.53 9.42383 21.53C5.73383 21.53 3.33383 18.29 3.33383 14.42V1.85H0.843828V14.42C0.843828 19.88 4.38383 23.75 9.42383 23.75C14.4338 23.75 17.9738 19.88 17.9738 14.42V1.85H15.4838V14.42ZM36.7245 11H25.9245V4.07H37.9245V1.85H23.4945V23H38.2245V20.78H25.9245V13.1H36.7245V11ZM52.0705 14.72L57.0805 23H59.9905L54.5905 14.36C57.6505 13.7 59.8105 11.24 59.8105 8.36C59.8105 4.55 56.6305 1.85 52.1605 1.85H42.8305V23H45.3205V14.72H52.0705ZM51.9805 4.07C55.1005 4.07 57.3205 5.69 57.3205 8.36C57.3205 10.79 55.1005 12.5 51.9805 12.5H45.3205V4.07H51.9805ZM79.913 1.85H77.903L72.293 6.14V9.11L77.393 5.18V23H79.913V1.85ZM98.1362 13.85C99.6662 11.87 100.356 9.83 100.356 8.15C100.356 4.22 97.0262 1.13 92.4062 1.13C87.8762 1.13 84.6062 4.16 84.6062 8.36C84.6062 12.44 87.6662 15.38 91.9262 15.38C92.6162 15.38 93.4262 15.29 94.2662 14.93L88.0862 23H91.1162L98.1362 13.85ZM97.8362 8.36C97.8362 11.21 95.5262 13.28 92.3462 13.25C89.3162 13.25 87.0962 11.21 87.0962 8.36C87.0962 5.48 89.3162 3.35 92.3462 3.35C95.5262 3.32 97.8362 5.45 97.8362 8.36ZM111.485 1.1C107.735 1.1 104.495 3.95 103.895 7.94L106.295 8.42C106.685 5.42 108.875 3.32 111.515 3.32C114.275 3.32 116.255 5.27 116.255 7.88C116.255 9.98 114.905 11.57 112.925 13.13L104.075 20.15V23H118.415V20.78H106.835L114.275 14.96C116.915 12.86 118.745 10.64 118.745 7.7C118.745 3.92 115.655 1.1 111.485 1.1ZM129.809 11.9C133.379 11.9 135.569 13.97 135.569 16.82C135.569 19.55 133.409 21.53 130.439 21.53C127.589 21.53 125.309 19.25 125.069 16.1L122.849 16.49C123.179 20.69 126.419 23.75 130.559 23.75C134.879 23.75 138.029 20.81 138.029 16.76C138.029 12.65 134.879 9.68 130.049 9.68H126.989L127.559 4.07H136.349V1.85H125.519L124.439 11.9H129.809Z" fill="black"/>
<path d="M1585.27 23L1593.13 5.03V23H1595.62V1.85H1591.96L1584.28 19.52L1576.6 1.85H1572.94V23H1575.43V5.06L1583.26 23H1585.27ZM1602.02 23L1603.76 18.02H1614.26L1616.06 23H1618.73L1610.84 1.85H1607.24L1599.35 23H1602.02ZM1609.07 4.07L1613.6 16.07H1604.51L1609.07 4.07ZM1631.69 14.72L1636.7 23H1639.61L1634.21 14.36C1637.27 13.7 1639.43 11.24 1639.43 8.36C1639.43 4.55 1636.25 1.85 1631.78 1.85H1622.45V23H1624.94V14.72H1631.69ZM1631.6 4.07C1634.72 4.07 1636.94 5.69 1636.94 8.36C1636.94 10.79 1634.72 12.5 1631.6 12.5H1624.94V4.07H1631.6ZM1660.98 15.95C1660.14 19.16 1656.99 21.53 1653.42 21.53C1648.5 21.53 1644.96 17.72 1644.93 12.44C1644.93 7.13 1648.47 3.32 1653.42 3.32C1657.02 3.32 1660.17 5.81 1660.95 9.11L1663.41 8.81C1662.39 4.37 1658.19 1.1 1653.42 1.1C1647.06 1.1 1642.44 5.87 1642.44 12.44C1642.44 19.01 1647.06 23.75 1653.42 23.75C1658.19 23.75 1662.36 20.63 1663.41 16.4L1660.98 15.95ZM1681.33 11H1670.53V4.07H1682.53V1.85H1668.1V23H1682.83V20.78H1670.53V13.1H1681.33V11ZM1689.92 1.85H1687.43V23H1700.75V20.78H1689.92V1.85ZM1722.89 23C1727.09 23 1730.15 20.51 1730.15 17.09C1730.15 14.69 1728.5 12.62 1726.16 12.08C1728.14 11.57 1729.55 9.71 1729.55 7.55C1729.55 4.25 1726.76 1.85 1722.95 1.85H1714.01V23H1722.89ZM1722.56 13.22C1725.53 13.22 1727.66 14.78 1727.66 16.97C1727.66 19.16 1725.53 20.78 1722.56 20.78H1716.5V13.22H1722.56ZM1722.65 4.07C1725.23 4.07 1727.06 5.54 1727.06 7.55C1727.06 9.59 1725.23 11 1722.65 11H1716.5V4.07H1722.65ZM1744.37 14.72L1749.38 23H1752.29L1746.89 14.36C1749.95 13.7 1752.11 11.24 1752.11 8.36C1752.11 4.55 1748.93 1.85 1744.46 1.85H1735.13V23H1737.62V14.72H1744.37ZM1744.28 4.07C1747.4 4.07 1749.62 5.69 1749.62 8.36C1749.62 10.79 1747.4 12.5 1744.28 12.5H1737.62V4.07H1744.28ZM1770.27 11H1759.47V4.07H1771.47V1.85H1757.04V23H1771.77V20.78H1759.47V13.1H1770.27V11ZM1790.84 14.42C1790.84 18.59 1788.41 21.53 1784.78 21.53C1781.09 21.53 1778.69 18.29 1778.69 14.42V1.85H1776.2V14.42C1776.2 19.88 1779.74 23.75 1784.78 23.75C1789.79 23.75 1793.33 19.88 1793.33 14.42V1.85H1790.84V14.42Z" fill="black"/>
<path d="M1785 47.7245V36.9245H1791.93V48.9245H1794.15V34.4945H1773V49.2245H1775.22V36.9245H1782.9V47.7245H1785ZM1781.28 63.0705L1773 68.0805V70.9905L1781.64 65.5905C1782.3 68.6505 1784.76 70.8105 1787.64 70.8105C1791.45 70.8105 1794.15 67.6305 1794.15 63.1605V53.8305H1773V56.3205H1781.28V63.0705ZM1791.93 62.9805C1791.93 66.1005 1790.31 68.3205 1787.64 68.3205C1785.21 68.3205 1783.5 66.1005 1783.5 62.9805V56.3205H1791.93V62.9805ZM1794.15 90.913V88.903L1789.86 83.293H1786.89L1790.82 88.393H1773V90.913H1794.15ZM1782.15 109.136C1784.13 110.666 1786.17 111.356 1787.85 111.356C1791.78 111.356 1794.87 108.026 1794.87 103.406C1794.87 98.8762 1791.84 95.6062 1787.64 95.6062C1783.56 95.6062 1780.62 98.6662 1780.62 102.926C1780.62 103.616 1780.71 104.426 1781.07 105.266L1773 99.0862V102.116L1782.15 109.136ZM1787.64 108.836C1784.79 108.836 1782.72 106.526 1782.75 103.346C1782.75 100.316 1784.79 98.0962 1787.64 98.0962C1790.52 98.0962 1792.65 100.316 1792.65 103.346C1792.68 106.526 1790.55 108.836 1787.64 108.836ZM1794.9 122.485C1794.9 118.735 1792.05 115.495 1788.06 114.895L1787.58 117.295C1790.58 117.685 1792.68 119.875 1792.68 122.515C1792.68 125.275 1790.73 127.255 1788.12 127.255C1786.02 127.255 1784.43 125.905 1782.87 123.925L1775.85 115.075H1773V129.415H1775.22V117.835L1781.04 125.275C1783.14 127.915 1785.36 129.745 1788.3 129.745C1792.08 129.745 1794.9 126.655 1794.9 122.485ZM1784.1 140.809C1784.1 144.379 1782.03 146.569 1779.18 146.569C1776.45 146.569 1774.47 144.409 1774.47 141.439C1774.47 138.589 1776.75 136.309 1779.9 136.069L1779.51 133.849C1775.31 134.179 1772.25 137.419 1772.25 141.559C1772.25 145.879 1775.19 149.029 1779.24 149.029C1783.35 149.029 1786.32 145.879 1786.32 141.049V137.989L1791.93 138.559V147.349H1794.15V136.519L1784.1 135.439V140.809Z" fill="black"/>
</svg>
